<svg xmlns="http://www.w3.org/2000/svg" viewBox="0 0 900 520" role="img" aria-labelledby="title desc">
  <title id="title">Backend system map</title>
  <desc id="desc">A technical diagram showing approval, outbox, settlement, security, and observability layers.</desc>
  <rect width="900" height="520" rx="24" fill="#f7fbff"/>
  <rect x="44" y="46" width="812" height="428" rx="18" fill="#ffffff" stroke="#cbd5e1" stroke-width="2"/>
  <rect x="88" y="94" width="190" height="88" rx="12" fill="#ecfeff" stroke="#0891b2" stroke-width="2"/>
  <text x="112" y="130" font-family="Inter, Arial" font-size="18" fill="#0f172a" font-weight="700">Approval</text>
  <text x="112" y="158" font-family="Inter, Arial" font-size="14" fill="#334155">JSONB snapshot</text>
  <rect x="356" y="94" width="190" height="88" rx="12" fill="#f0fdf4" stroke="#16a34a" stroke-width="2"/>
  <text x="380" y="130" font-family="Inter, Arial" font-size="18" fill="#0f172a" font-weight="700">Outbox</text>
  <text x="380" y="158" font-family="Inter, Arial" font-size="14" fill="#334155">Async reliability</text>
  <rect x="624" y="94" width="190" height="88" rx="12" fill="#fff7ed" stroke="#ea580c" stroke-width="2"/>
  <text x="648" y="130" font-family="Inter, Arial" font-size="18" fill="#0f172a" font-weight="700">Settlement</text>
  <text x="648" y="158" font-family="Inter, Arial" font-size="14" fill="#334155">Snapshot ledger</text>
  <rect x="88" y="304" width="190" height="88" rx="12" fill="#eff6ff" stroke="#2563eb" stroke-width="2"/>
  <text x="112" y="340" font-family="Inter, Arial" font-size="18" fill="#0f172a" font-weight="700">Security</text>
  <text x="112" y="368" font-family="Inter, Arial" font-size="14" fill="#334155">KMS + RBAC</text>
  <rect x="356" y="304" width="190" height="88" rx="12" fill="#f8fafc" stroke="#475569" stroke-width="2"/>
  <text x="380" y="340" font-family="Inter, Arial" font-size="18" fill="#0f172a" font-weight="700">Infra</text>
  <text x="380" y="368" font-family="Inter, Arial" font-size="14" fill="#334155">Terraform stacks</text>
  <rect x="624" y="304" width="190" height="88" rx="12" fill="#faf5ff" stroke="#9333ea" stroke-width="2"/>
  <text x="648" y="340" font-family="Inter, Arial" font-size="18" fill="#0f172a" font-weight="700">Observability</text>
  <text x="648" y="368" font-family="Inter, Arial" font-size="14" fill="#334155">Logs metrics traces</text>
  <path d="M278 138h78" stroke="#64748b" stroke-width="3" stroke-linecap="round"/>
  <path d="M546 138h78" stroke="#64748b" stroke-width="3" stroke-linecap="round"/>
  <path d="M719 182v122" stroke="#64748b" stroke-width="3" stroke-linecap="round"/>
  <path d="M624 348h-78" stroke="#64748b" stroke-width="3" stroke-linecap="round"/>
  <path d="M356 348h-78" stroke="#64748b" stroke-width="3" stroke-linecap="round"/>
  <path d="M183 304V182" stroke="#64748b" stroke-width="3" stroke-linecap="round"/>
  <circle cx="318" cy="138" r="5" fill="#64748b"/>
  <circle cx="586" cy="138" r="5" fill="#64748b"/>
  <circle cx="719" cy="244" r="5" fill="#64748b"/>
  <circle cx="586" cy="348" r="5" fill="#64748b"/>
  <circle cx="318" cy="348" r="5" fill="#64748b"/>
  <circle cx="183" cy="244" r="5" fill="#64748b"/>
</svg>
